<?xml version="1.0" encoding="UTF-8"?>
<svg version="1.1" xmlns="http://www.w3.org/2000/svg" width="200" height="200">
<path d="M0 0 C66 0 132 0 200 0 C200 66 200 132 200 200 C134 200 68 200 0 200 C0 134 0 68 0 0 Z " fill="#FCC11B" transform="translate(0,0)"/>
<path d="M0 0 C3.63842363 0.26461263 6.33820183 0.2357598 9.78515625 -0.9921875 C16.36612143 -3.05523612 24.08607596 -3.27153049 30.4375 -0.5 C31.7059375 0.7375 31.7059375 0.7375 33 2 C33.80244141 2.73476563 33.80244141 2.73476563 34.62109375 3.484375 C41.33042867 10.23853844 46.90842984 20.7194555 49 30 C49.71285156 30.14695313 50.42570312 30.29390625 51.16015625 30.4453125 C58.02390489 32.05270451 62.01164563 34.01164563 67 39 C66.72432911 42.30805073 66.24409777 43.74110843 63.9375 46.1875 C60.28606515 48.44051299 57.19373851 49.14703624 53 50 C53.33 50.66 53.66 51.32 54 52 C54.58748316 57.64887653 54.33473828 62.22020846 51 67 C45.84210526 71 45.84210526 71 43 71 C43 72.32 43 73.64 43 75 C45.81711646 77.12821884 45.81711646 77.12821884 49 79 C50.9375 80.4375 50.9375 80.4375 52 82 C51.91231623 85.41966703 51.34506935 86.66507975 48.875 89.0625 C48.25625 89.701875 47.6375 90.34125 47 91 C47.26489384 95.00872677 49.81572049 97.53577166 52.25 100.5625 C56.50861359 105.99686678 59.48497242 111.57972859 62 118 C52.2723629 131.41743048 36.02400209 138.1015398 20.33203125 141.59375 C7.10228677 143.20675519 -9.75337613 144.12331194 -22 138 C-21.505 135.03 -21.505 135.03 -21 132 C-21.6290625 131.92523438 -22.258125 131.85046875 -22.90625 131.7734375 C-29.54792793 130.75317975 -34.24688964 128.8451803 -39 124 C-40.75 120.9375 -40.75 120.9375 -42 118 C-43.0828125 116.7625 -43.0828125 116.7625 -44.1875 115.5 C-46 113 -46 113 -46.5 110.0625 C-45.87923287 106.26030136 -44.31353637 104.03651648 -42 101 C-42.86882813 101.04640625 -43.73765625 101.0928125 -44.6328125 101.140625 C-54.06109947 101.4359181 -54.06109947 101.4359181 -58.5 99.375 C-66.77001885 91.51848209 -66.77001885 91.51848209 -67.23828125 86.390625 C-67.48756822 75.84184992 -67.48756822 75.84184992 -63 71 C-57.37456084 65.7476767 -53.77760884 64.53078853 -46.12109375 64.5859375 C-41.29187282 65.22661011 -38.21818686 67.42509845 -35 71 C-30.88251133 76.6104349 -31.34288417 82.29404872 -32 89 C-33.5 92.6875 -33.5 92.6875 -35 95 C-35 95.66 -35 96.32 -35 97 C-33.948125 96.87625 -32.89625 96.7525 -31.8125 96.625 C-28 97 -28 97 -26.421875 98.3359375 C-25.20199133 99.82924338 -24.092399 101.411056 -23 103 C-22.01 101.68 -21.02 100.36 -20 99 C-21.11591737 96.39619281 -22.06671367 94.93900464 -24.1875 93 C-26 91 -26 91 -26 89 C-24.7407491 86.48149821 -23.07803895 84.8769384 -21 83 C-22.32798435 78.79351983 -23.8051873 77.07039935 -27.4375 74.625 C-31.7956723 71.40892108 -33.52820578 69.20033957 -35 64 C-35 62.68 -35 61.36 -35 60 C-36.19625 60.0825 -37.3925 60.165 -38.625 60.25 C-43.11459887 60.23405116 -45.64731777 59.10736402 -49 56 C-50.125 53.125 -50.125 53.125 -50 50 C-47.2542801 43.7240688 -41.9302494 41.03937657 -36 38 C-34.515 37.505 -34.515 37.505 -33 37 C-32.76216797 35.49373047 -32.76216797 35.49373047 -32.51953125 33.95703125 C-30.44824617 21.52932075 -28.06516718 8.57903511 -18 0 C-12.18805973 -3.57387456 -6.00903985 -2.53012204 0 0 Z " fill="#361002" transform="translate(102,34)"/>
<path d="M0 0 C5.12916914 2.42233345 8.52597839 5.904254 11 11 C11.86857163 17.80381113 11.8177807 24.11425476 8 30 C8 30.66 8 31.32 8 32 C10.31 32 12.62 32 15 32 C15.495 36.95 15.495 36.95 16 42 C15.67 42 15.34 42 15 42 C15.02320313 42.62648437 15.04640625 43.25296875 15.0703125 43.8984375 C15.08835938 44.71570313 15.10640625 45.53296875 15.125 46.375 C15.14820313 47.18710938 15.17140625 47.99921875 15.1953125 48.8359375 C15 51 15 51 13 53 C9.6875 53.5625 9.6875 53.5625 6 53 C3.8993899 50.9046153 2.43249452 48.58773203 1 46 C0.01 46.495 0.01 46.495 -1 47 C-1.6875 43.75 -1.6875 43.75 -2 40 C-0.51953125 37.765625 -0.51953125 37.765625 1 36 C0.13117187 36.04640625 -0.73765625 36.0928125 -1.6328125 36.140625 C-11.06109947 36.4359181 -11.06109947 36.4359181 -15.5 34.375 C-23.77001885 26.51848209 -23.77001885 26.51848209 -24.23828125 21.390625 C-24.48756822 10.84184992 -24.48756822 10.84184992 -20 6 C-13.61050573 0.03429872 -8.71275895 -1.15588542 0 0 Z " fill="#391503" transform="translate(59,99)"/>
<path d="M0 0 C1.9375 0.2734375 1.9375 0.2734375 4.375 1.2734375 C9.04572429 3.09615918 14.05125806 2.9441013 18.75 1.2734375 C24.82171245 -0.63141347 31.31266963 -0.76658963 37.25 1.5859375 C42.1430548 6.4789923 46.4077362 12.45350534 47.9375 19.2734375 C47.33317139 19.2827832 46.72884277 19.29212891 46.10620117 19.30175781 C30.09322139 19.60549076 14.38802541 20.94997793 -1.4934082 22.90136719 C-2.22487061 22.99077072 -2.95633301 23.08017426 -3.70996094 23.17228699 C-5.70536007 23.41799576 -7.69999977 23.66984968 -9.69458008 23.92211914 C-12.52221232 24.21707839 -15.22445478 24.34617319 -18.0625 24.2734375 C-16.81820664 14.19037061 -12.10199611 -0.57840423 0 0 Z " fill="#B44F16" transform="translate(94.0625,36.7265625)"/>
<path d="M0 0 C1.53362181 -0.01161091 3.06720046 -0.03220347 4.60058594 -0.06152344 C13.5717598 -0.23181401 21.44010288 -0.13101467 29.53955078 4.29516602 C29.53955078 4.95516602 29.53955078 5.61516602 29.53955078 6.29516602 C27.72197266 6.45952148 27.72197266 6.45952148 25.86767578 6.62719727 C15.26297335 7.6187503 4.76146264 8.93028781 -5.76123047 10.57250977 C-9.98754685 11.23177043 -14.21841387 11.80849324 -18.46044922 12.35766602 C-22.62609702 12.90004492 -26.76176699 13.50027961 -30.89794922 14.23266602 C-45.61008845 16.72794065 -60.50850276 19.00590995 -75.46044922 18.29516602 C-74.71044922 13.56079102 -74.71044922 13.56079102 -72.46044922 11.17016602 C-64.09108452 5.93931308 -54.21757763 5.09496142 -44.63623047 3.6315918 C-42.72105302 3.33546135 -40.80917709 3.01814339 -38.89794922 2.69750977 C-25.99725947 0.56320448 -13.05154403 0.06857449 0 0 Z " fill="#9F430C" transform="translate(133.46044921875,68.704833984375)"/>
<path d="M0 0 C0.85722656 0.27714844 1.71445313 0.55429688 2.59765625 0.83984375 C3.74105469 1.20207031 4.88445312 1.56429687 6.0625 1.9375 C7.75052734 2.47697266 7.75052734 2.47697266 9.47265625 3.02734375 C16.73113149 5.02885021 23.77494001 5.18262708 31.25 5.1875 C32.22324219 5.19974609 33.19648437 5.21199219 34.19921875 5.22460938 C41.00126217 5.23815926 47.35449612 4.4367117 54 3 C53.50029676 9.66270983 50.38415906 14.54772211 45.8125 19.25 C37.49891131 24.42289963 29.53164416 26.50364375 19.80859375 24.5625 C12.99964439 22.43053934 7.84226476 18.02993758 4.1640625 11.98046875 C0 3.89671362 0 3.89671362 0 0 Z " fill="#F7B36F" transform="translate(79,98)"/>
<path d="M0 0 C3.48478389 1.24926215 5.43164611 2.35586559 7.875 5.125 C9.81849203 10.09170186 9.85875626 14.85310934 7.875 19.8125 C4.53931703 23.70413013 1.62182097 25.76831129 -3.5 26.5 C-8.62182097 25.76831129 -11.53931703 23.70413013 -14.875 19.8125 C-16.48942639 15.77643403 -16.92637226 12.27444209 -16 8 C-11.93106206 1.30553941 -7.832574 -0.80221894 0 0 Z " fill="#FAC019" transform="translate(56,104)"/>
<path d="M0 0 C2 1 2 1 2.67016602 2.82592773 C2.95911743 3.99297241 2.95911743 3.99297241 3.25390625 5.18359375 C3.46853516 6.02857422 3.68316406 6.87355469 3.90429688 7.74414062 C4.12150391 8.63294922 4.33871094 9.52175781 4.5625 10.4375 C4.99947062 12.18665647 5.43819056 13.93537713 5.87890625 15.68359375 C6.0704126 16.46275146 6.26191895 17.24190918 6.45922852 18.04467773 C6.948128 20.0567699 6.948128 20.0567699 8 22 C5.12854755 23.01132916 2.25354777 24.00924402 -0.625 25 C-1.43324219 25.28617188 -2.24148437 25.57234375 -3.07421875 25.8671875 C-7.53114644 27.38906525 -11.22037472 28.37123303 -16 28 C-16.7934889 21.88153136 -14.26092523 18.71004422 -10.8125 14 C-10.08836914 12.97132813 -10.08836914 12.97132813 -9.34960938 11.921875 C-6.40954969 7.7860595 -3.29628267 3.85671099 0 0 Z " fill="#9C430B" transform="translate(135,147)"/>
<path d="M0 0 C7.13549206 6.48681096 13.08899939 15.18673135 17 24 C17 24.99 17 25.98 17 27 C14.91796875 29.0078125 14.91796875 29.0078125 12.1875 31.125 C11.29417969 31.82882813 10.40085938 32.53265625 9.48046875 33.2578125 C7 35 7 35 4 36 C2.961009 32.44254137 1.94705842 28.87841256 0.9375 25.3125 C0.64294922 24.30509766 0.34839844 23.29769531 0.04492188 22.25976562 C-0.3659668 20.79506836 -0.3659668 20.79506836 -0.78515625 19.30078125 C-1.04176025 18.40528564 -1.29836426 17.50979004 -1.56274414 16.5871582 C-2.16688966 13.0125462 -1.4119175 10.27319954 -0.3125 6.875 C0.27452637 4.67085333 0.27452637 4.67085333 -2 2 C-1.34 1.34 -0.68 0.68 0 0 Z " fill="#9E440D" transform="translate(143,130)"/>
<path d="M0 0 C-3.60885014 2.04639119 -7.42703583 3.03243272 -11.4140625 4.05859375 C-12.1373172 4.24764282 -12.8605719 4.43669189 -13.60574341 4.63146973 C-15.94398419 5.2395106 -18.28422945 5.83927718 -20.625 6.4375 C-21.41700806 6.64142365 -22.20901611 6.84534729 -23.02502441 7.05545044 C-33.16348709 9.65860057 -43.22663802 12.04614993 -53.609375 13.46484375 C-57.2176216 14.03434811 -60.51179083 14.93117693 -64 16 C-63.69238119 13.12889107 -63.03618633 12.03731715 -61 9.9375 C-52.70560839 4.58070542 -42.72946312 3.79941283 -33.15820312 2.34082031 C-31.29318744 2.04629974 -29.43477117 1.71053987 -27.578125 1.3671875 C-18.37322496 -0.29156352 -9.31615372 -0.18820513 0 0 Z " fill="#BD5619" transform="translate(122,70)"/>
<path d="M0 0 C1.8828125 0.25390625 1.8828125 0.25390625 4 1 C5.0546875 2.77734375 5.0546875 2.77734375 5.875 4.9375 C7.40645061 8.36182355 7.64659607 8.8368905 11.25 10.5 C12.1575 10.665 13.065 10.83 14 11 C14 11.66 14 12.32 14 13 C18.20433212 17.20433212 20.96191355 18.41941476 27 19 C27.09087891 18.07767578 27.09087891 18.07767578 27.18359375 17.13671875 C27.26738281 16.32847656 27.35117188 15.52023438 27.4375 14.6875 C27.51871094 13.88699219 27.59992188 13.08648437 27.68359375 12.26171875 C28 10 28 10 29 7 C29.99 7 30.98 7 32 7 C32.48032656 15.71703754 31.07313419 23.54704214 29 32 C27.35 31.67 25.7 31.34 24 31 C24.33 29.02 24.66 27.04 25 25 C24.3709375 24.92523438 23.741875 24.85046875 23.09375 24.7734375 C16.45207207 23.75317975 11.75311036 21.8451803 7 17 C5.25 13.9375 5.25 13.9375 4 11 C3.278125 10.175 2.55625 9.35 1.8125 8.5 C-0.40181039 5.44577877 -0.34316152 3.68898636 0 0 Z " fill="#3B1403" transform="translate(56,141)"/>
<path d="M0 0 C12.04908377 6.61518325 12.04908377 6.61518325 14 13 C12.7315625 14.11375 12.7315625 14.11375 11.4375 15.25 C8.81667034 17.6386674 8.81667034 17.6386674 8.875 20 C10.46635234 22.82907082 12.62826142 24.81070285 15 27 C13.70700306 29.88437779 12.34058637 31.87219421 10 34 C9.608125 33.195625 9.21625 32.39125 8.8125 31.5625 C7.25453805 28.80682802 7.25453805 28.80682802 4.5625 28.25 C3.716875 28.1675 2.87125 28.085 2 28 C0.66457061 27.67516582 -0.66961551 27.3449145 -2 27 C-1.690625 26.236875 -1.38125 25.47375 -1.0625 24.6875 C0.621799 20.42721429 1.16130705 17.20352787 1.1875 12.625 C1.20167969 11.50351563 1.21585937 10.38203125 1.23046875 9.2265625 C1.00365368 6.05115158 0.35390668 3.85765282 -1 1 C-0.67 0.67 -0.34 0.34 0 0 Z " fill="#F1BB1B" transform="translate(68,104)"/>
<path d="M0 0 C3.45281166 1.15093722 4.38082163 2.3205993 6.6875 5.0625 C7.31011719 5.79597656 7.93273437 6.52945313 8.57421875 7.28515625 C9.27998047 8.13400391 9.27998047 8.13400391 10 9 C8.31445554 12.87016075 5.78092556 16.02217736 3.1875 19.3125 C0.36248394 22.93117964 -2.43720286 26.54442646 -5.0625 30.3125 C-5.701875 31.199375 -6.34125 32.08625 -7 33 C-7.33 33 -7.66 33 -8 33 C-8.59039521 20.47050169 -6.01162728 10.9539928 0 0 Z " fill="#9F440E" transform="translate(127,127)"/>
<path d="M0 0 C4.86195315 4.32631424 8.28114513 10.39020553 9.84375 16.640625 C3.90375 16.640625 -2.03625 16.640625 -8.15625 16.640625 C-8.81625 10.700625 -9.47625 4.760625 -10.15625 -1.359375 C-5.33778434 -2.32306813 -4.01763904 -2.50221379 0 0 Z " fill="#98400A" transform="translate(132.15625,39.359375)"/>
<path d="M0 0 C1.9375 0.2734375 1.9375 0.2734375 4.375 1.2734375 C9.07556182 3.10780309 14.07792575 2.92024594 18.8125 1.2734375 C23.48065146 -0.22037097 28.07546937 0.1177141 32.9375 0.2734375 C32.9375 0.6034375 32.9375 0.9334375 32.9375 1.2734375 C31.01692708 1.72916667 29.09635417 2.18489583 27.17578125 2.640625 C24.88294657 3.23002067 24.88294657 3.23002067 22.61572266 4.31616211 C19.74240364 5.34317067 17.87193452 5.41677166 14.84765625 5.22265625 C13.89826172 5.18462891 12.94886719 5.14660156 11.97070312 5.10742188 C9.99307252 5.00990557 8.01631058 4.89276101 6.04101562 4.75585938 C0.6637478 4.48728043 0.6637478 4.48728043 -4.02880859 6.74633789 C-8.51595643 11.89862505 -11.05488906 17.78730983 -13.0625 24.2734375 C-14.7125 24.2734375 -16.3625 24.2734375 -18.0625 24.2734375 C-16.81820664 14.19037061 -12.10199611 -0.57840423 0 0 Z " fill="#EC7A1B" transform="translate(94.0625,36.7265625)"/>
<path d="M0 0 C2.67964094 3.50347877 5.21867577 7.09598264 7.6875 10.75 C8.10322266 11.33265625 8.51894531 11.9153125 8.94726562 12.515625 C12.0714137 17.19415217 12.42547403 20.40100842 12 26 C10.24967156 25.85816304 8.49974466 25.71136571 6.75 25.5625 C5.77546875 25.48128906 4.8009375 25.40007812 3.796875 25.31640625 C1.43538247 25.04925416 -0.71901065 24.64628032 -3 24 C-2.29563752 15.95543903 -1.18531495 7.98649105 0 0 Z " fill="#9B430C" transform="translate(88,150)"/>
<path d="M0 0 C3.16501807 2.00708463 4.031181 4.01310703 5.0703125 7.5625 C6.13482779 14.1861507 5.7697319 20.93985246 5.5625 27.625 C1.88154088 23.33341448 -0.87492621 18.68953565 -3.6875 13.8125 C-4.14640625 13.02423828 -4.6053125 12.23597656 -5.078125 11.42382812 C-6.20154386 9.49295196 -7.32121244 7.56000474 -8.4375 5.625 C-3.67559524 -0.56547619 -3.67559524 -0.56547619 0 0 Z " fill="#9E440E" transform="translate(94.4375,132.375)"/>
<path d="M0 0 C2 2 2 2 2 6 C2.99 6.33 3.98 6.66 5 7 C4.85795259 8.58367747 4.71119847 10.16693318 4.5625 11.75 C4.48128906 12.63171875 4.40007812 13.5134375 4.31640625 14.421875 C4 17 4 17 3 21 C-0.96 21.66 -4.92 22.32 -9 23 C-9 21.68 -9 20.36 -9 19 C-8.01 18.34 -7.02 17.68 -6 17 C-5.29554319 14.25754676 -4.75241573 11.65872904 -4.3125 8.875 C-4.18294922 8.12089844 -4.05339844 7.36679687 -3.91992188 6.58984375 C-3.60184096 4.72848134 -3.29941714 2.86445565 -3 1 C-2.01 0.67 -1.02 0.34 0 0 Z " fill="#401804" transform="translate(75,54)"/>
<path d="M0 0 C3.465 1.98 3.465 1.98 7 4 C7 7 7 7 5.171875 9.2265625 C3.97304687 10.41378906 3.97304687 10.41378906 2.75 11.625 C1.96109375 12.42164062 1.1721875 13.21828125 0.359375 14.0390625 C-1.89945122 15.91643131 -3.13817731 16.61929882 -6 17 C-7.32 15.35 -8.64 13.7 -10 12 C-8.52278578 8.54798361 -6.56205999 6.35038064 -3.875 3.75 C-3.15054688 3.04359375 -2.42609375 2.3371875 -1.6796875 1.609375 C-1.12539062 1.07828125 -0.57109375 0.5471875 0 0 Z " fill="#9C420D" transform="translate(140,113)"/>
<path d="M0 0 C1.8125 0.9375 1.8125 0.9375 2.8125 3.9375 C3.4725 3.9375 4.1325 3.9375 4.8125 3.9375 C6.64191851 7.70394988 7.04412684 9.90672125 5.8125 13.9375 C4.8125 14.9375 4.8125 14.9375 1.5 15.3125 C-2.1875 14.9375 -2.1875 14.9375 -4.625 12.8125 C-6.45586859 9.44370179 -6.83000722 7.71222994 -6.1875 3.9375 C-3.29302764 -0.0940865 -3.29302764 -0.0940865 0 0 Z " fill="#F3AF6E" transform="translate(67.1875,137.0625)"/>
<path d="M0 0 C2.72426311 2.35277269 3.8141763 4.62496331 5 8 C4.34 8 3.68 8 3 8 C2.34 11.96 1.68 15.92 1 20 C-4.02254631 20.2954439 -6.89542386 19.98514628 -11 17 C-10.21625 16.175 -9.4325 15.35 -8.625 14.5 C-5.58836 10.90420533 -4.86809043 7.57720406 -4 3 C-1.525 4.98 -1.525 4.98 1 7 C0.835 6.401875 0.67 5.80375 0.5 5.1875 C0 3 0 3 0 0 Z " fill="#963F0C" transform="translate(82,140)"/>
<path d="M0 0 C0.70125 0.144375 1.4025 0.28875 2.125 0.4375 C1.70461469 5.34199525 -0.44704908 7.09315764 -3.875 10.4375 C-5.194018 13.10283035 -5.194018 13.10283035 -5.875 15.4375 C-6.865 15.1075 -7.855 14.7775 -8.875 14.4375 C-9.29143175 11.03664072 -9.45553391 8.45001369 -7.71484375 5.4140625 C-3.86382114 0.58797278 -3.86382114 0.58797278 0 0 Z " fill="#FCDE70" transform="translate(50.875,106.5625)"/>
<path d="M0 0 C0.33 0.66 0.66 1.32 1 2 C-0.24493748 4.28974316 -1.52641528 6.44190034 -2.9375 8.625 C-3.32357422 9.23601562 -3.70964844 9.84703125 -4.10742188 10.4765625 C-5.06446326 11.9889242 -6.03132811 13.49506117 -7 15 C-9.10271345 11.15769229 -9.56171129 8.41344585 -9 4 C-6.22945596 1.6912133 -3.52593616 0.65295114 0 0 Z " fill="#ECD7BD" transform="translate(123,124)"/>
<path d="M0 0 C0 0.33 0 0.66 0 1 C-1.216875 1.28875 -2.43375 1.5775 -3.6875 1.875 C-6.13996701 2.46992655 -8.10694495 3.05347248 -10.375 4.1875 C-14.586987 5.49121026 -18.69075337 4.61919272 -23 4 C-23 3.67 -23 3.34 -23 3 C-15.17683695 0.70629774 -8.15475474 -0.433422 0 0 Z " fill="#DF6F16" transform="translate(127,37)"/>
<path d="M0 0 C1.98 0 3.96 0 6 0 C7.60080151 4.00200378 6.29279692 7.04556236 5 11 C3 10 3 10 2.1484375 7.71484375 C1.89320312 6.79832031 1.63796875 5.88179687 1.375 4.9375 C1.11460938 4.01839844 0.85421875 3.09929687 0.5859375 2.15234375 C0.39257812 1.44207031 0.19921875 0.73179688 0 0 Z " fill="#F0DAC1" transform="translate(100,127)"/>
<path d="M0 0 C5.94 0 11.88 0 18 0 C12.82377371 2.58811315 7.6746495 4.76418557 1.9375 3.125 C1.298125 2.75375 0.65875 2.3825 0 2 C0 1.34 0 0.68 0 0 Z " fill="#B55219" transform="translate(104,70)"/>
<path d="M0 0 C0.53625 0.268125 1.0725 0.53625 1.625 0.8125 C0.8825 1.369375 0.14 1.92625 -0.625 2.5 C-3.45215575 4.71143307 -3.45215575 4.71143307 -5.5 7.5625 C-6.428125 8.67625 -6.428125 8.67625 -7.375 9.8125 C-8.365 9.8125 -9.355 9.8125 -10.375 9.8125 C-9.01008735 5.03530571 -5.57550568 -0.4401715 0 0 Z " fill="#F3B817" transform="translate(50.375,104.1875)"/>
<path d="M0 0 C2.125 0.375 2.125 0.375 4 1 C4.6875 3.25 4.6875 3.25 5 6 C3.5625 8.3125 3.5625 8.3125 2 10 C2 8.68 2 7.36 2 6 C1.34 6 0.68 6 0 6 C-0.66 4.68 -1.32 3.36 -2 2 C-1.34 1.34 -0.68 0.68 0 0 Z " fill="#744A30" transform="translate(70,135)"/>
<path d="M0 0 C-0.886875 0.5775 -1.77375 1.155 -2.6875 1.75 C-5.59042244 3.68068476 -8.30768649 5.78280064 -11 8 C-11.33 7.01 -11.66 6.02 -12 5 C-4.5 -1.5 -4.5 -1.5 0 0 Z " fill="#E9781C" transform="translate(70,78)"/>
<path d="M0 0 C0.99 0 1.98 0 3 0 C3 2.31 3 4.62 3 7 C1.68 7 0.36 7 -1 7 C-1.04254356 5.00045254 -1.04080783 2.99958364 -1 1 C-0.67 0.67 -0.34 0.34 0 0 Z " fill="#D66619" transform="translate(76,63)"/>
<path d="M0 0 C2 1 2 1 2.75 2.875 C3 5 3 5 1 8 C1 7.01 1 6.02 1 5 C0.01 5.33 -0.98 5.66 -2 6 C-2.33 5.34 -2.66 4.68 -3 4 C-2.01 2.68 -1.02 1.36 0 0 Z " fill="#441D05" transform="translate(56,78)"/>
<path d="M0 0 C3.63 0.66 7.26 1.32 11 2 C11 2.33 11 2.66 11 3 C7.7 3 4.4 3 1 3 C0.67 2.01 0.34 1.02 0 0 Z " fill="#F67E19" transform="translate(98,39)"/>
</svg>
